<?xml version="1.0" encoding="UTF-8"?>
<svg xmlns="http://www.w3.org/2000/svg" xmlns:xlink="http://www.w3.org/1999/xlink" width="64pt" height="64pt"
     viewBox="0 0 64 64" version="1.1">
    <g id="surface1163480">
        <path style=" stroke:none;fill-rule:nonzero;fill:rgb(100%,100%,100%);fill-opacity:1;"
              d="M 9.027344 4 C 8.742188 3.992188 8.464844 4.105469 8.269531 4.316406 C 8.074219 4.523438 7.976562 4.804688 8.003906 5.089844 C 8.242188 7.71875 9.535156 9.894531 11.375 11.65625 C 11.339844 11.757812 11.320312 11.863281 11.316406 11.972656 C 11.238281 14.761719 9.917969 16.140625 8.5625 16.988281 C 7.203125 17.835938 5.875 18.007812 5.875 18.007812 C 5.535156 18.050781 5.242188 18.261719 5.097656 18.570312 C 4.953125 18.878906 4.972656 19.238281 5.152344 19.53125 C 7.511719 23.308594 7.476562 26.472656 6.902344 28.757812 C 6.332031 31.042969 5.230469 32.359375 5.230469 32.359375 C 4.902344 32.757812 4.925781 33.339844 5.292969 33.707031 C 8.097656 36.511719 8.207031 38.792969 7.777344 40.507812 C 7.351562 42.222656 6.292969 43.292969 6.292969 43.292969 C 6.078125 43.507812 5.972656 43.808594 6.007812 44.113281 C 6.042969 44.414062 6.210938 44.6875 6.46875 44.847656 C 8.347656 46.019531 9.308594 47.1875 9.773438 48.234375 C 10.238281 49.28125 10.238281 50.25 10.027344 51.148438 C 9.605469 52.941406 8.292969 54.292969 8.292969 54.292969 C 8.054688 54.53125 7.953125 54.871094 8.019531 55.199219 C 8.089844 55.53125 8.316406 55.804688 8.628906 55.929688 C 10.988281 56.871094 12.347656 58.023438 13.121094 58.910156 C 13.898438 59.792969 14.050781 60.316406 14.050781 60.316406 C 14.0625 60.351562 14.078125 60.386719 14.09375 60.421875 C 14.09375 60.425781 14.097656 60.429688 14.097656 60.433594 C 14.109375 60.457031 14.125 60.480469 14.136719 60.503906 C 14.136719 60.507812 14.140625 60.507812 14.140625 60.511719 C 14.15625 60.535156 14.171875 60.558594 14.1875 60.582031 C 14.195312 60.59375 14.207031 60.605469 14.21875 60.617188 C 14.246094 60.660156 14.28125 60.699219 14.320312 60.730469 C 14.320312 60.734375 14.324219 60.738281 14.332031 60.742188 C 14.375 60.785156 14.425781 60.824219 14.480469 60.855469 C 14.492188 60.863281 14.503906 60.867188 14.515625 60.871094 C 14.558594 60.898438 14.609375 60.921875 14.660156 60.9375 C 14.675781 60.945312 14.691406 60.949219 14.707031 60.953125 C 14.816406 60.988281 14.933594 61.003906 15.050781 61 L 37 61 C 37.527344 61 37.964844 60.59375 38 60.066406 C 38 60.066406 38.949219 47.148438 32.585938 37.71875 C 33.132812 37.738281 33.691406 37.703125 34.253906 37.613281 C 34.449219 37.726562 34.644531 37.835938 34.839844 37.941406 L 40.867188 44.257812 L 39.449219 48.695312 C 39.332031 49.058594 39.433594 49.460938 39.710938 49.722656 C 39.988281 49.988281 40.394531 50.070312 40.753906 49.9375 L 48.59375 46.984375 C 48.847656 46.886719 49.050781 46.691406 49.160156 46.441406 C 49.265625 46.191406 49.269531 45.90625 49.164062 45.65625 L 48.328125 43.675781 L 50 42 L 47.621094 42 L 47.4375 41.566406 L 50 39 L 46.351562 39 L 46.214844 38.675781 L 48 36 L 45.085938 36 L 44.921875 35.613281 C 44.917969 35.601562 44.914062 35.59375 44.914062 35.589844 L 44.371094 34.394531 C 44.386719 33.480469 44.757812 32.597656 45.496094 32.007812 C 46.058594 31.550781 46.75 31.320312 47.4375 31.320312 C 48.050781 31.320312 48.671875 31.507812 49.210938 31.878906 C 49.210938 31.878906 49.210938 31.878906 49.210938 31.882812 L 50 32.433594 L 50 35 L 51.886719 33.742188 L 53.621094 34.949219 L 52 39 L 56 36.601562 L 56.648438 37.050781 L 56 39 L 57.761719 37.828125 L 59.335938 38.917969 C 59.5625 39.078125 59.84375 39.132812 60.113281 39.078125 C 60.382812 39.019531 60.617188 38.851562 60.761719 38.617188 C 61.699219 37.070312 61.789062 35.226562 61.285156 33.386719 C 60.777344 31.546875 59.707031 29.664062 58.234375 27.773438 C 57.816406 27.242188 57.363281 26.710938 56.886719 26.179688 C 57.667969 23.625 53.921875 17.382812 54.652344 19.390625 C 55.164062 20.808594 54.402344 22.222656 53.753906 23.089844 C 53.1875 22.589844 52.597656 22.097656 51.992188 21.609375 C 51.902344 17.664062 48.25 11.070312 49.0625 13.539062 C 49.707031 15.5 48.742188 17.457031 47.925781 18.652344 C 47.136719 18.132812 46.332031 17.625 45.507812 17.136719 C 45.347656 17.046875 45.195312 16.96875 45.039062 16.878906 C 45.015625 16.742188 44.96875 16.613281 44.898438 16.496094 C 43.195312 13.585938 41.980469 7.804688 41.980469 7.804688 C 41.917969 7.488281 41.707031 7.222656 41.414062 7.089844 C 41.121094 6.957031 40.785156 6.972656 40.503906 7.128906 C 38.878906 8.058594 37.652344 8.296875 36.722656 8.222656 C 35.789062 8.148438 35.105469 7.769531 34.546875 7.257812 C 33.425781 6.242188 32.960938 4.722656 32.960938 4.722656 C 32.835938 4.292969 32.441406 3.996094 31.992188 4 C 31.648438 4.003906 31.332031 4.179688 31.152344 4.46875 C 29.984375 6.339844 28.839844 7.21875 27.824219 7.59375 C 26.808594 7.96875 25.859375 7.875 24.957031 7.554688 C 23.152344 6.921875 21.761719 5.347656 21.761719 5.347656 C 21.5625 5.117188 21.269531 4.992188 20.96875 5 C 20.664062 5.011719 20.382812 5.15625 20.199219 5.398438 C 19.054688 6.925781 17.390625 7.617188 15.816406 7.914062 C 15.757812 7.925781 15.699219 7.941406 15.648438 7.957031 C 13.390625 6.953125 11.347656 5.75 9.664062 4.25 C 9.488281 4.09375 9.261719 4.007812 9.027344 4 Z M 31.789062 6.824219 C 32.125 7.4375 32.519531 8.121094 33.203125 8.742188 C 34.019531 9.480469 35.148438 10.101562 36.5625 10.214844 C 37.65625 10.300781 38.933594 9.972656 40.304688 9.371094 C 40.546875 10.503906 41.109375 12.972656 42.113281 15.363281 C 38.28125 13.5625 34.785156 12.679688 31.746094 12.355469 C 27.289062 11.507812 22.65625 10.570312 18.472656 9.085938 C 19.332031 8.65625 20.175781 8.078125 20.941406 7.328125 C 21.582031 7.957031 22.621094 8.851562 24.292969 9.441406 C 25.515625 9.875 27.003906 10.03125 28.519531 9.46875 C 29.652344 9.050781 30.742188 8.089844 31.789062 6.824219 Z M 10.929688 7.707031 C 16.480469 11.332031 23.796875 12.910156 30.566406 14.183594 C 30.675781 14.234375 30.796875 14.265625 30.917969 14.273438 C 31.015625 14.28125 31.125 14.296875 31.226562 14.308594 C 32.429688 14.53125 33.664062 14.765625 34.816406 14.984375 C 34.941406 15.007812 35.070312 15.011719 35.199219 14.988281 C 37.996094 15.675781 41.113281 16.875 44.492188 18.863281 C 49.507812 21.8125 53.929688 25.511719 56.65625 29.007812 C 58.019531 30.753906 58.949219 32.449219 59.355469 33.917969 C 59.628906 34.917969 59.582031 35.75 59.390625 36.523438 L 50.351562 30.238281 C 49.476562 29.628906 48.453125 29.320312 47.4375 29.320312 C 46.304688 29.320312 45.167969 29.699219 44.242188 30.449219 C 42.964844 31.472656 42.308594 33.023438 42.347656 34.582031 C 42.351562 34.714844 42.378906 34.847656 42.4375 34.96875 L 43.085938 36.402344 L 46.914062 45.476562 L 41.984375 47.335938 L 42.953125 44.304688 C 43.0625 43.957031 42.976562 43.574219 42.722656 43.3125 L 36.367188 36.644531 C 36.273438 36.5 36.148438 36.382812 36.003906 36.300781 C 35.632812 36.097656 35.273438 35.902344 34.921875 35.699219 C 34.652344 35.535156 34.320312 35.507812 34.027344 35.628906 C 30.289062 36.253906 26.734375 33.8125 26.003906 30.070312 C 25.628906 28.140625 26.078125 26.253906 27.113281 24.757812 C 27.328125 24.453125 27.355469 24.046875 27.183594 23.714844 C 27.007812 23.378906 26.660156 23.171875 26.285156 23.179688 C 25.953125 23.183594 25.648438 23.347656 25.464844 23.625 C 24.140625 25.542969 23.558594 27.984375 24.042969 30.453125 C 24.667969 33.675781 26.964844 36.15625 29.855469 37.195312 C 29.886719 37.347656 29.949219 37.492188 30.046875 37.617188 C 36.113281 45.371094 36.082031 56.65625 36.011719 59 L 16.433594 59 C 20.359375 49.273438 15.207031 40.101562 14.910156 39.585938 C 11.667969 31.871094 12.183594 26.558594 13.769531 22.914062 C 15.34375 19.296875 18.042969 17.28125 19.46875 16.421875 C 19.90625 16.59375 20.335938 16.777344 20.777344 16.941406 C 26.097656 18.894531 31.863281 20.148438 35.097656 21.304688 C 34.644531 22.789062 35.941406 24.820312 38.007812 25.703125 L 40.371094 23.015625 L 40.371094 26 C 41.683594 26 42.472656 25.402344 43 24.207031 C 43 23.609375 43 23.015625 42.734375 22.714844 C 41.949219 22.414062 38.007812 20.324219 36.691406 19.726562 C 36.671875 19.726562 36.640625 19.742188 36.617188 19.746094 C 33.09375 18.261719 27.039062 17.105469 21.46875 15.0625 C 18.464844 13.957031 15.644531 12.609375 13.582031 10.941406 C 12.390625 9.976562 11.550781 8.886719 10.925781 7.707031 Z M 13.207031 13.167969 C 14.441406 14.046875 15.835938 14.796875 17.289062 15.476562 C 15.605469 16.703125 13.375 18.8125 11.9375 22.113281 C 10.121094 26.285156 9.664062 32.28125 13.078125 40.386719 C 13.097656 40.433594 13.117188 40.472656 13.144531 40.511719 C 13.144531 40.511719 18.183594 48.976562 14.839844 57.863281 C 14.765625 57.773438 14.710938 57.6875 14.628906 57.589844 C 13.824219 56.675781 12.414062 55.632812 10.53125 54.691406 C 11.054688 53.96875 11.652344 52.957031 11.972656 51.605469 C 12.261719 50.375 12.261719 48.90625 11.601562 47.421875 C 11.050781 46.1875 9.933594 44.984375 8.390625 43.84375 C 8.851562 43.203125 9.394531 42.292969 9.722656 40.992188 C 10.253906 38.863281 9.855469 35.921875 7.230469 32.949219 C 7.679688 32.289062 8.367188 31.160156 8.847656 29.242188 C 9.457031 26.789062 9.382812 23.398438 7.433594 19.652344 C 8.0625 19.457031 8.820312 19.183594 9.621094 18.683594 C 11.171875 17.714844 12.785156 15.945312 13.210938 13.164062 Z M 22 53 C 21.449219 53 21 53.449219 21 54 L 21 56 C 21 56.550781 21.449219 57 22 57 C 22.550781 57 23 56.550781 23 56 L 23 54 C 23 53.449219 22.550781 53 22 53 Z M 27 53 C 26.449219 53 26 53.449219 26 54 L 26 56 C 26 56.550781 26.449219 57 27 57 C 27.550781 57 28 56.550781 28 56 L 28 54 C 28 53.449219 27.550781 53 27 53 Z M 32 53 C 31.449219 53 31 53.449219 31 54 L 31 56 C 31 56.550781 31.449219 57 32 57 C 32.550781 57 33 56.550781 33 56 L 33 54 C 33 53.449219 32.550781 53 32 53 Z M 32 53 "/>
    </g>
</svg>
